<?xml version="1.0" encoding="utf-8"?>
<!-- Generator: Adobe Illustrator 28.0.0, SVG Export Plug-In . SVG Version: 6.00 Build 0)  -->
<svg version="1.1" id="Layer_1" xmlns="http://www.w3.org/2000/svg" xmlns:xlink="http://www.w3.org/1999/xlink" x="0px" y="0px"
	 viewBox="0 0 200 200" style="enable-background:new 0 0 200 200;" xml:space="preserve">
<style type="text/css">
	.st0{fill:#727273;}
</style>
<path class="st0" d="M106.1,96.9l41.1,58.7h-16.9l-33.5-47.9v0l-4.9-7l-39.1-56h16.9l31.6,45.2L106.1,96.9z M200,100
	c0,55.2-44.8,100-100,100S0,155.2,0,100C0,44.8,44.8,0,100,0S200,44.8,200,100z M162.2,163.6l-50.4-73.3h0l46.3-53.8h-11L107,83.2
	L74.8,36.4h-37l48.6,70.7l-48.6,56.4h11l42.5-49.4l33.9,49.4H162.2z"/>
</svg>
